<mxfile host="app.diagrams.net" modified="2021-09-04T14:28:36.242Z" agent="5.0 (Windows NT 10.0; Win64; x64) AppleWebKit/537.36 (KHTML, like Gecko) Chrome/92.0.4515.159 Safari/537.36" etag="Cyl8vV2ViaIZG3a5hsCn" version="15.0.6" type="github">
  <diagram id="V8VYY0FCOON2VPt1NCl-" name="Page-1">
    <mxGraphModel dx="1209" dy="626" grid="1" gridSize="10" guides="1" tooltips="1" connect="1" arrows="1" fold="1" page="1" pageScale="1" pageWidth="850" pageHeight="1100" math="0" shadow="0">
      <root>
        <mxCell id="0" />
        <mxCell id="1" parent="0" />
        <mxCell id="wubIIp2DkQfUaSN37Je6-1" value="dev1" style="rounded=1;whiteSpace=wrap;html=1;" vertex="1" parent="1">
          <mxGeometry x="50" y="440" width="120" height="60" as="geometry" />
        </mxCell>
        <mxCell id="wubIIp2DkQfUaSN37Je6-2" value="dev2" style="rounded=1;whiteSpace=wrap;html=1;" vertex="1" parent="1">
          <mxGeometry x="260" y="450" width="120" height="60" as="geometry" />
        </mxCell>
        <mxCell id="wubIIp2DkQfUaSN37Je6-3" value="dev3" style="rounded=1;whiteSpace=wrap;html=1;" vertex="1" parent="1">
          <mxGeometry x="460" y="460" width="120" height="60" as="geometry" />
        </mxCell>
        <mxCell id="wubIIp2DkQfUaSN37Je6-4" value="GITHUB" style="rounded=0;whiteSpace=wrap;html=1;" vertex="1" parent="1">
          <mxGeometry x="60" y="70" width="280" height="60" as="geometry" />
        </mxCell>
        <mxCell id="wubIIp2DkQfUaSN37Je6-5" value="JENKINS" style="rounded=1;whiteSpace=wrap;html=1;" vertex="1" parent="1">
          <mxGeometry x="500" y="230" width="140" height="60" as="geometry" />
        </mxCell>
        <mxCell id="wubIIp2DkQfUaSN37Je6-6" value="" style="endArrow=classic;html=1;exitX=0.434;exitY=0.017;exitDx=0;exitDy=0;exitPerimeter=0;entryX=0.25;entryY=1;entryDx=0;entryDy=0;" edge="1" parent="1" source="wubIIp2DkQfUaSN37Je6-1" target="wubIIp2DkQfUaSN37Je6-4">
          <mxGeometry width="50" height="50" relative="1" as="geometry">
            <mxPoint x="100" y="460" as="sourcePoint" />
            <mxPoint x="150" y="410" as="targetPoint" />
          </mxGeometry>
        </mxCell>
        <mxCell id="wubIIp2DkQfUaSN37Je6-7" value="" style="endArrow=classic;html=1;exitX=0.25;exitY=0;exitDx=0;exitDy=0;entryX=0.286;entryY=1;entryDx=0;entryDy=0;entryPerimeter=0;" edge="1" parent="1" source="wubIIp2DkQfUaSN37Je6-2" target="wubIIp2DkQfUaSN37Je6-4">
          <mxGeometry width="50" height="50" relative="1" as="geometry">
            <mxPoint x="112.07999999999993" y="451.02" as="sourcePoint" />
            <mxPoint x="140" y="140" as="targetPoint" />
          </mxGeometry>
        </mxCell>
        <mxCell id="wubIIp2DkQfUaSN37Je6-8" value="" style="endArrow=classic;html=1;exitX=0.434;exitY=0.017;exitDx=0;exitDy=0;exitPerimeter=0;" edge="1" parent="1">
          <mxGeometry width="50" height="50" relative="1" as="geometry">
            <mxPoint x="479.99999999999994" y="460" as="sourcePoint" />
            <mxPoint x="242" y="133" as="targetPoint" />
          </mxGeometry>
        </mxCell>
        <mxCell id="wubIIp2DkQfUaSN37Je6-9" value="" style="endArrow=classic;html=1;exitX=1;exitY=1;exitDx=0;exitDy=0;entryX=0;entryY=0.25;entryDx=0;entryDy=0;" edge="1" parent="1" source="wubIIp2DkQfUaSN37Je6-4" target="wubIIp2DkQfUaSN37Je6-5">
          <mxGeometry width="50" height="50" relative="1" as="geometry">
            <mxPoint x="340" y="170" as="sourcePoint" />
            <mxPoint x="390" y="120" as="targetPoint" />
          </mxGeometry>
        </mxCell>
      </root>
    </mxGraphModel>
  </diagram>
</mxfile>
